<svg height="404pt" viewBox="0 -9 404.003 404" width="404pt" xmlns="http://www.w3.org/2000/svg"><path d="m37 6.300781v133.699219h-30.839844c-3.367187.039062-6.0937498 2.742188-6.160156 6.109375v233.59375c.0507812 3.402344 2.757812 6.171875 6.160156 6.296875h391.671875c.015625 0 .03125-.152344.046875-.152344.222656-.023437.445313-.066406.667969-.117187.058594-.007813.121094-.054688.183594-.066407.183593-.027343.363281-.078124.539062-.121093.054688-.015625.113281-.039063.171875-.054688.199219-.054687.398438-.121093.589844-.199219l.082031-.035156c.222657-.089844.4375-.191406.644531-.308594.046876-.027343.089844-.054687.132813-.082031.15625-.089843.304687-.191406.453125-.300781l.1875-.140625c.140625-.109375.28125-.230469.410156-.351563.042969-.039062.085938-.074218.125-.113281.164063-.164062.320313-.339843.464844-.523437.035156-.046875.074219-.097656.109375-.144532.121094-.164062.234375-.332031.339844-.507812.015625-.027344.039062-.050781.050781-.078125.015625-.027344.019531-.035156.03125-.054687.066406-.121094.128906-.242188.1875-.371094.027344-.054688.054688-.109375.078125-.164063.054687-.121093.101563-.246093.148437-.371093.019532-.0625.046876-.125.070313-.191407.035156-.109375.0625-.226562.09375-.339843.019531-.078126.042969-.160157.058594-.238282.023437-.101562.039062-.199218.054687-.300781.015625-.097656.03125-.199219.046875-.300781.011719-.097656.011719-.175782.019531-.265625.003907-.109375.09375-.222657.097657-.332031 0-.027344.085937-.054688.085937-.078126v-233.585937c-.066406-3.367187-2.796875-6.070313-6.164062-6.109375h-30.839844v-133.699219c-.191406-3.457031-3-6.195312-6.464844-6.300781h-317.070312c-3.464844.105469-6.273438 2.84375-6.464844 6.300781zm355 156.660157v206.339843l-110.59375-63.957031zm-16.519531 211.039062h-347.492188l174.011719-100.328125zm-363.480469-5.027344v-206.492187l113.671875 140.953125zm25-194.234375-17.785156-22.738281h17.785156zm348.074219-22.738281-18.074219 23.976562v-23.976562zm-30.074219-140v179.425781l-84.007812 107.855469-65.871094-38.03125c-1.878906-1.070312-4.183594-1.070312-6.058594 0l-62.910156 36.121094-87.152344-107.753906v-177.617188zm0 0"/><path d="m144 112c0 3.316406 2.6875 6 6 6h12.023438c5.347656 14.339844 16.207031 25.941406 30.164062 32.226562 13.953125 6.285157 29.839844 6.726563 44.121094 1.230469 3.019531-1.234375 4.496094-4.660156 3.324218-7.703125-1.171874-3.046875-4.5625-4.597656-7.632812-3.492187-21.875 8.417969-46.558594-1.234375-56.921875-22.261719h44.921875c3.3125 0 6-2.683594 6-6 0-3.3125-2.6875-6-6-6h-48.847656c-.828125-4.621094-.929688-9.34375-.296875-14h55.144531c3.3125 0 6-2.683594 6-6 0-3.3125-2.6875-6-6-6h-51.824219c9.683594-22.25 35.175781-32.921875 57.824219-24.207031 3.09375 1.191406 6.566406-.351563 7.757812-3.441407 1.191407-3.09375-.351562-6.566406-3.445312-7.757812-14.617188-5.628906-30.898438-5.027344-45.0625 1.660156-14.160156 6.6875-24.96875 18.882813-29.90625 33.746094h-11.34375c-3.3125 0-6 2.6875-6 6 0 3.316406 2.6875 6 6 6h8.761719c-.492188 4.660156-.414063 9.363281.238281 14h-9c-3.3125 0-6 2.6875-6 6zm0 0"/><path d="m123.464844 202h157.070312c3.316406 0 6-2.683594 6-6 0-3.3125-2.683594-6-6-6h-157.070312c-3.316406 0-6 2.6875-6 6 0 3.316406 2.683594 6 6 6zm0 0"/><path d="m123.464844 232h157.070312c3.316406 0 6-2.683594 6-6 0-3.3125-2.683594-6-6-6h-157.070312c-3.316406 0-6 2.6875-6 6 0 3.316406 2.683594 6 6 6zm0 0"/></svg>