<?xml version="1.0" standalone="no"?>
<!DOCTYPE svg PUBLIC "-//W3C//DTD SVG 20010904//EN"
 "http://www.w3.org/TR/2001/REC-SVG-20010904/DTD/svg10.dtd">
<svg version="1.0" xmlns="http://www.w3.org/2000/svg"
 width="502.000000pt" height="102.000000pt" viewBox="0 0 502.000000 102.000000"
 preserveAspectRatio="xMidYMid meet">

<g transform="translate(0.000000,102.000000) scale(0.100000,-0.100000)"
fill="#000000" stroke="none">
<path d="M50 885 l0 -84 133 -3 132 -3 3 -367 2 -368 115 0 115 0 0 370 0 370
135 0 135 0 0 85 0 85 -385 0 -385 0 0 -85z"/>
<path d="M1105 958 c-3 -7 -72 -212 -154 -456 l-150 -442 119 0 119 0 28 93
29 92 139 0 139 0 29 -92 28 -93 120 0 c65 0 119 3 119 6 0 4 -68 209 -151
455 l-152 449 -129 0 c-94 0 -130 -3 -133 -12z m175 -404 c22 -71 40 -130 40
-131 0 -2 -39 -3 -86 -3 -77 0 -85 2 -80 18 13 43 58 190 68 220 5 18 12 31
14 29 3 -3 23 -63 44 -133z"/>
<path d="M1760 515 l0 -456 118 3 117 3 3 146 3 147 112 4 c124 4 173 20 247
79 120 96 140 318 39 433 -22 25 -61 53 -91 67 -51 23 -64 24 -300 27 l-248 3
0 -456z m407 261 c42 -21 54 -45 55 -108 0 -87 -40 -122 -155 -134 l-67 -7 0
138 0 138 68 -5 c37 -3 82 -12 99 -22z"/>
<path d="M2785 958 c-3 -7 -72 -212 -154 -456 l-150 -442 119 0 119 0 28 93
29 92 139 0 139 0 29 -92 28 -93 120 0 c65 0 119 3 119 6 0 4 -68 209 -151
455 l-152 449 -129 0 c-94 0 -130 -3 -133 -12z m175 -404 c22 -71 40 -130 40
-131 0 -2 -39 -3 -86 -3 -77 0 -85 2 -80 18 13 43 58 190 68 220 5 18 12 31
14 29 3 -3 23 -63 44 -133z"/>
<path d="M3430 515 l0 -456 118 3 117 3 3 146 3 147 112 4 c124 4 173 20 247
79 120 96 140 318 39 433 -22 25 -61 53 -91 67 -51 23 -64 24 -300 27 l-248 3
0 -456z m407 261 c42 -21 55 -48 55 -109 0 -86 -41 -121 -155 -133 l-67 -7 0
138 0 138 68 -5 c37 -3 82 -12 99 -22z"/>
<path d="M4250 515 l0 -456 118 3 117 3 3 146 3 147 112 4 c124 4 173 20 247
79 120 96 140 318 39 433 -22 25 -61 53 -91 67 -51 23 -64 24 -300 27 l-248 3
0 -456z m407 261 c42 -21 55 -48 55 -109 0 -86 -41 -121 -155 -133 l-67 -7 0
138 0 138 68 -5 c37 -3 82 -12 99 -22z"/>
</g>
</svg>
