<?xml version="1.0" encoding="UTF-8"?>
<svg width="312px" height="373px" viewBox="0 0 312 373" version="1.1" xmlns="http://www.w3.org/2000/svg" xmlns:xlink="http://www.w3.org/1999/xlink">
    <!-- Generator: Sketch 53 (72520) - https://sketchapp.com -->
    <title>Customer facing screen M frame@2x</title>
    <desc>Created with Sketch.</desc>
    <defs>
        <polygon id="path-1" points="7.39457226 0.223578595 0.0919829099 0.223578595 0.0919829099 7.77726281 7.39457226 7.77726281 7.39457226 0.223578595"></polygon>
        <polygon id="path-3" points="0 37.8166007 249.810554 37.8166007 249.810554 0.223578595 0 0.223578595"></polygon>
    </defs>
    <g id="Customer-facing-screen-M-frame" stroke="none" stroke-width="1" fill="none" fill-rule="evenodd">
        <rect fill="#FF4785" x="0" y="0" width="312" height="373"></rect>
        <polygon id="Rectangle-10" fill-opacity="0.7" fill="#EADCC9" style="mix-blend-mode: multiply;" transform="translate(-220.720000, 152.880000) rotate(22.000000) translate(220.720000, -152.880000) " points="-495.904 -176.904 54.464 -176.904 54.464 482.664 -495.904 482.664"></polygon>
        <g id="logo_wit-copy" transform="translate(31.000000, 24.000000)">
            <g id="Page-1">
                <polygon id="Fill-1" fill="#FFFFFF" points="218.87464 32.7305962 225.138639 32.7305962 225.138639 10.3090229 218.87464 10.3090229"></polygon>
                <g id="Group-30" transform="translate(0.000000, 0.124679)">
                    <g id="Group-4" transform="translate(218.254868, 0.000000)">
                        <mask id="mask-2" fill="white">
                            <use xlink:href="#path-1"></use>
                        </mask>
                        <g id="Clip-3"></g>
                        <path d="M3.73984314,7.77726115 C1.72324744,7.77532313 0.0901109412,6.08278763 0.0919845204,3.99683454 C0.0938580995,1.91088144 1.7294927,0.221575976 3.7460884,0.223513994 C5.7626841,0.225452012 7.3958206,1.91798751 7.39457155,4.0039406 C7.39269797,6.0898937 5.75643884,7.77919916 3.73984314,7.77726115" id="Fill-2" fill="#FFFFFF" mask="url(#mask-2)"></path>
                    </g>
                    <path d="M180.871272,32.6814997 C174.844593,32.6814997 169.941436,27.6097073 169.941436,21.3757502 C169.941436,17.1560396 172.187858,13.3155344 175.805739,11.3555525 C177.335204,10.5280189 179.231266,11.1359105 180.033782,12.722501 C180.836299,14.3065075 180.244872,16.2651974 178.712285,17.0959611 C177.165957,17.9331847 176.205436,19.5740397 176.205436,21.3757502 C176.205436,24.0366486 178.298848,26.2020604 180.871272,26.2020604 C182.713625,26.2020604 184.387356,25.0773641 185.137412,23.3370242 C185.843127,21.7019832 187.696097,20.9674745 189.273026,21.6961692 C190.853702,22.4248638 191.563789,24.3402714 190.859323,25.9740203 C189.103779,30.0483796 185.183003,32.6814997 180.871272,32.6814997" id="Fill-5" fill="#FFFFFF"></path>
                    <mask id="mask-4" fill="white">
                        <use xlink:href="#path-3"></use>
                    </mask>
                    <g id="Clip-8"></g>
                    <polygon id="Fill-7" fill="#FFFFFF" mask="url(#mask-4)" points="243.546555 37.7448941 249.810554 37.7448941 249.810554 10.2276262 243.546555 10.2276262"></polygon>
                    <polygon id="Fill-9" fill="#FFFFFF" mask="url(#mask-4)" points="77.5786676 37.7448941 83.8426673 37.7448941 83.8426673 10.2276262 77.5786676 10.2276262"></polygon>
                    <polygon id="Fill-10" fill="#FFFFFF" mask="url(#mask-4)" points="194.514988 32.605917 200.778988 32.605917 200.778988 10.2276262 194.514988 10.2276262"></polygon>
                    <polygon id="Fill-11" fill="#FFFFFF" mask="url(#mask-4)" points="117.00939 32.605917 123.27339 32.605917 123.27339 10.2276262 117.00939 10.2276262"></polygon>
                    <path d="M159.003481,32.6814997 C152.976801,32.6814997 148.073645,27.6097073 148.073645,21.3757502 C148.073645,15.1417932 152.976801,10.0700007 159.003481,10.0700007 C162.688187,10.0700007 166.100599,11.9744262 168.132183,15.1637574 L162.900526,18.728418 C162.031185,17.3640535 160.574789,16.5494401 159.003481,16.5494401 C156.431057,16.5494401 154.337644,18.7148519 154.337644,21.3757502 C154.337644,24.0366486 156.431057,26.2020604 159.003481,26.2020604 C160.561674,26.2020604 162.011825,25.4010131 162.88179,24.0573208 L168.085344,27.6665558 C166.048763,30.8074366 162.653838,32.6814997 159.003481,32.6814997" id="Fill-12" fill="#FFFFFF" mask="url(#mask-4)"></path>
                    <path d="M10.6226317,16.0334105 C11.6799549,15.32345 12.8690532,14.9836509 14.0444118,14.9836509 C16.1147168,14.9836509 18.1450521,16.0334105 19.3522616,17.9617382 C20.2690663,19.4223576 20.580705,21.1672195 20.2284721,22.8720291 C19.9212051,24.3630108 19.1405471,25.6653587 18.0051581,26.6046513 L27.9432465,19.2156357 C27.6384776,17.2382116 26.9383836,15.3312021 25.8535812,13.6011983 C23.81138,10.3408064 20.6631424,8.09851989 16.9909273,7.28713646 C13.314965,6.47769105 9.55718973,7.19217359 6.40707864,9.30848896 L10.6226317,16.0314725 L10.6226317,16.0334105 Z" id="Fill-13" fill="#FFFFFF" mask="url(#mask-4)"></path>
                    <path d="M47.6067096,27.8967277 C45.9585845,27.5323804 44.5452812,26.5246112 43.627852,25.0620538 C41.735537,22.0419761 42.5711533,17.9915191 45.4920632,16.0315371 L35.0443613,23.8004042 C35.3416359,25.7474661 36.0242432,27.6622276 37.1259078,29.4206557 C39.8157429,33.713365 44.3366894,36.0506144 48.9463187,36.0506144 C51.5668314,36.0506144 54.2154478,35.2941414 56.5724104,33.715949 L52.3568573,26.9884434 C50.9429295,27.9406561 49.2598309,28.259137 47.6067096,27.8967277" id="Fill-14" fill="#FFFFFF" mask="url(#mask-4)"></path>
                    <path d="M60.7218261,13.6013275 C59.1904874,11.1561951 57.0371205,9.28342393 54.5065395,8.15743563 C53.6628044,7.78210619 52.777226,7.49011152 51.8591722,7.28726566 C48.1863325,6.47975827 44.4279327,7.19424081 41.1235636,9.41585515 L40.3073076,10.0224547 L27.9435588,19.2151189 L18.0054704,26.6047805 C17.8405954,26.7410877 17.6682262,26.8702889 17.4889871,26.990446 C17.1629843,27.208796 16.8238665,27.3858017 16.4772543,27.535029 C13.9535432,28.622903 10.9945372,27.8929163 9.22025775,25.6997262 C9.05725636,25.4981724 8.90112476,25.2882204 8.75935727,25.0621184 L2.2580376,29.4207203 C4.30023888,32.6811121 7.44847639,34.9233987 11.1206915,35.7347821 C11.3655059,35.7884006 11.6109448,35.835559 11.8563836,35.8762574 C12.0955772,35.9156637 12.3353954,35.947964 12.5752135,35.9744503 C12.5795852,35.9750963 12.5845814,35.9757423 12.5895776,35.9763883 C13.0798308,36.0300068 13.570084,36.057139 14.0590882,36.057139 C16.7582912,36.057139 19.4268925,35.2386495 21.8513039,33.6100686 C21.8575492,33.6055466 21.8637944,33.6003785 21.8706642,33.5958565 L22.6688089,33.0028231 L35.0444238,23.8004688 L45.4915012,16.0316017 C45.6501309,15.9250107 45.8125077,15.8300479 45.9773827,15.739607 C46.0248467,15.7131208 46.0735598,15.6885726 46.1216483,15.6640243 C46.2509253,15.5974857 46.3820758,15.5354692 46.5144754,15.4786206 C46.5563187,15.4605325 46.5981619,15.4411523 46.6406297,15.4243562 C46.8148726,15.3539415 46.9922381,15.2899869 47.1714771,15.2363684 C47.1877148,15.2318464 47.204577,15.2279704 47.2208147,15.2234483 C47.3856897,15.1749979 47.5524382,15.1355915 47.7210604,15.1013532 C47.7616546,15.0936011 47.8022488,15.0858491 47.8434675,15.078743 C48.008967,15.0490267 48.1757156,15.0251245 48.3430886,15.0096204 C48.3630735,15.0076823 48.3830583,15.0044523 48.4030432,15.0025143 C48.5716653,14.9883022 48.740912,14.9799041 48.9107831,14.9799041 C48.9288944,14.9799041 48.9470057,14.9824881 48.9651169,14.9824881 C49.0875241,14.9837801 49.2099313,14.9941162 49.3323384,15.0025143 C49.4222702,15.0089743 49.512202,15.0102664 49.6021338,15.0206025 C49.8150973,15.0445047 50.0286854,15.078743 50.2410243,15.1252554 C50.447118,15.1704758 50.6494646,15.2260323 50.848064,15.2912789 C51.0347974,15.3532955 51.2177836,15.4250022 51.3970227,15.5031689 C51.4538546,15.5283631 51.5088129,15.5580794 51.5656448,15.5852116 C51.6861784,15.6420601 51.8054629,15.7008467 51.9216248,15.7654473 C51.9859511,15.8009776 52.0477792,15.839738 52.1102318,15.8778523 C52.2157768,15.9418069 52.3194481,16.0070535 52.4212459,16.0768221 C52.4836986,16.1201045 52.5442776,16.1646789 52.6054812,16.2098993 C52.7041564,16.283544 52.8003335,16.3597727 52.8946369,16.4385854 C52.9514688,16.4863899 53.0076762,16.5341943 53.0626345,16.5839368 C53.1594361,16.6711476 53.2524906,16.7622344 53.3436714,16.8552592 C53.3905109,16.9030637 53.4385994,16.9495761 53.4835653,16.9993186 C53.5866122,17.1110776 53.6846628,17.2286507 53.7802154,17.3481618 C53.8095681,17.3843381 53.8401699,17.4185764 53.8682736,17.4547527 C53.9919298,17.6169002 54.1105898,17.7842158 54.2205065,17.9599294 L60.7218261,13.6019735 L60.7218261,13.6013275" id="Fill-15" fill="#FFFFFF" mask="url(#mask-4)"></path>
                    <path d="M88.6046185,16.5494401 C86.0321943,16.5494401 83.9387819,18.7148519 83.9387819,21.3757502 C83.9387819,24.0366486 86.0321943,26.2020604 88.6046185,26.2020604 C91.1770427,26.2020604 93.2704551,24.0366486 93.2704551,21.3757502 C93.2704551,18.7148519 91.1770427,16.5494401 88.6046185,16.5494401 M88.6046185,32.6814997 C82.5779389,32.6814997 77.6747822,27.6097073 77.6747822,21.3757502 C77.6747822,15.1417932 82.5779389,10.0700007 88.6046185,10.0700007 C94.6312981,10.0700007 99.5344548,15.1417932 99.5344548,21.3757502 C99.5344548,27.6097073 94.6312981,32.6814997 88.6046185,32.6814997" id="Fill-16" fill="#FFFFFF" mask="url(#mask-4)"></path>
                    <path d="M112.377777,16.5494401 C109.805353,16.5494401 107.711941,18.7148519 107.711941,21.3757502 C107.711941,24.0366486 109.805353,26.2020604 112.377777,26.2020604 C114.950202,26.2020604 117.043614,24.0366486 117.043614,21.3757502 C117.043614,18.7148519 114.950202,16.5494401 112.377777,16.5494401 M112.377777,32.6814997 C106.351098,32.6814997 101.447941,27.6097073 101.447941,21.3757502 C101.447941,15.1417932 106.351098,10.0700007 112.377777,10.0700007 C118.404457,10.0700007 123.307614,15.1417932 123.307614,21.3757502 C123.307614,27.6097073 118.404457,32.6814997 112.377777,32.6814997" id="Fill-17" fill="#FFFFFF" mask="url(#mask-4)"></path>
                    <path d="M238.833316,16.5494401 C236.260892,16.5494401 234.16748,18.7148519 234.16748,21.3757502 C234.16748,24.0366486 236.260892,26.2020604 238.833316,26.2020604 C241.405741,26.2020604 243.499153,24.0366486 243.499153,21.3757502 C243.499153,18.7148519 241.405741,16.5494401 238.833316,16.5494401 M238.833316,32.6814997 C232.806637,32.6814997 227.90348,27.6097073 227.90348,21.3757502 C227.90348,15.1417932 232.806637,10.0700007 238.833316,10.0700007 C244.859996,10.0700007 249.763153,15.1417932 249.763153,21.3757502 C249.763153,27.6097073 244.859996,32.6814997 238.833316,32.6814997" id="Fill-18" fill="#FFFFFF" mask="url(#mask-4)"></path>
                    <path d="M183.756772,32.1135313 C182.511466,32.1135313 181.334858,31.3402623 180.845854,30.0715066 C180.205715,28.4099794 180.989495,26.5249342 182.597026,25.8627781 C184.383172,25.1263314 185.537296,23.3659653 185.537296,21.375621 C185.537296,18.7147227 183.443884,16.5493108 180.87146,16.5493108 C178.93293,16.5493108 177.176137,17.8096684 176.499775,19.6863156 C175.892111,21.3627009 174.088479,22.2109067 172.469706,21.588157 C170.84906,20.9621772 170.02531,19.0965122 170.630476,17.4194808 C172.217398,13.0234106 176.333026,10.0698715 180.87146,10.0698715 C186.898139,10.0698715 191.801296,15.141664 191.801296,21.375621 C191.801296,26.0339697 189.097721,30.1580714 184.914644,31.8829072 C184.534932,32.0385946 184.142104,32.1135313 183.756772,32.1135313" id="Fill-19" fill="#FFFFFF" mask="url(#mask-4)"></path>
                    <path d="M214.824211,32.4591445 L208.560212,32.4591445 L208.560212,20.9757434 C208.560212,19.5525923 208.171132,18.4601963 207.40234,17.7302097 C206.728476,17.0893718 205.77982,16.7366526 204.731865,16.7366526 C204.324049,16.7366526 200.747387,16.8516416 200.747387,20.8355601 L194.483387,20.8355601 C194.483387,13.9646412 199.763758,10.2572132 204.731865,10.2572132 C209.747436,10.2572132 214.824211,13.939447 214.824211,20.9757434 L214.824211,32.4591445 Z" id="Fill-20" fill="#FFFFFF" mask="url(#mask-4)"></path>
                    <polygon id="Fill-21" fill="#FFFFFF" mask="url(#mask-4)" points="137.564802 37.7781634 125.54704 10.2763996 132.326899 10.2763996 140.480715 30.1152412"></polygon>
                    <polygon id="Fill-22" fill="#FFFFFF" mask="url(#mask-4)" points="137.54694 37.8166007 131.189886 37.8166007 141.704412 10.2767226 148.061466 10.2767226"></polygon>
                    <path d="M10.6226317,16.0313433 L6.40707864,9.30835976 C-0.0973636635,13.6708377 -1.95845229,22.6929563 2.25772534,29.4204619 L8.75966954,25.06186 C8.40431402,24.4959588 8.1457601,23.8932353 7.97838703,23.2750076 C7.81101396,22.65678 7.73544626,22.0230482 7.74731227,21.3944844 C7.78665743,19.2981952 8.79776565,17.2561705 10.6226317,16.0313433" id="Fill-23" fill="#FFFFFF" mask="url(#mask-4)"></path>
                    <path d="M54.2203191,17.9618028 C55.1371238,19.4243602 55.4487625,21.1672841 55.0965296,22.8720937 C54.7449213,24.5794874 53.7719092,26.0401067 52.3573569,26.9884434 L56.5722855,33.715949 C59.7236456,31.6015716 61.8913767,28.3457018 62.6745328,24.5458951 C62.7856985,24.0077721 62.8637643,23.4683572 62.9156,22.9289423 C62.952447,22.5516748 62.9755545,22.1744073 62.9836733,21.7984319 C62.9842979,21.7622556 62.986796,21.7267252 62.9874205,21.6905489 C63.0273902,18.8423088 62.2548511,16.0451032 60.7222633,13.6019089 L54.2203191,17.9598648" id="Fill-24" fill="#FFFFFF" mask="url(#mask-4)"></path>
                    <path d="M10.6226317,16.0334105 C11.6799549,15.32345 12.8690532,14.9836509 14.0444118,14.9836509 C16.1147168,14.9836509 18.1450521,16.0334105 19.3522616,17.9617382 C20.2690663,19.4223576 20.580705,21.1672195 20.2284721,22.8720291 C19.9212051,24.3630108 19.1405471,25.6653587 18.0051581,26.6046513 L27.9432465,19.2156357 C27.6384776,17.2382116 26.9383836,15.3312021 25.8535812,13.6011983 C23.81138,10.3408064 20.6631424,8.09851989 16.9909273,7.28713646 C13.314965,6.47769105 9.55718973,7.19217359 6.40707864,9.30848896 L10.6226317,16.0314725 L10.6226317,16.0334105 Z" id="Fill-25" fill="#FFFFFF" mask="url(#mask-4)"></path>
                    <path d="M47.6067096,27.8967277 C45.9585845,27.5323804 44.5452812,26.5246112 43.627852,25.0620538 C41.735537,22.0419761 42.5711533,17.9915191 45.4920632,16.0315371 L35.0443613,23.8004042 C35.3416359,25.7474661 36.0242432,27.6622276 37.1259078,29.4206557 C39.8157429,33.713365 44.3366894,36.0506144 48.9463187,36.0506144 C51.5668314,36.0506144 54.2154478,35.2941414 56.5724104,33.715949 L52.3568573,26.9884434 C50.9429295,27.9406561 49.2598309,28.259137 47.6067096,27.8967277" id="Fill-26" fill="#FFFFFF" mask="url(#mask-4)"></path>
                    <path d="M60.7218261,13.6013275 C59.1904874,11.1561951 57.0371205,9.28342393 54.5065395,8.15743563 C53.6628044,7.78210619 52.777226,7.49011152 51.8591722,7.28726566 C48.1863325,6.47975827 44.4279327,7.19424081 41.1235636,9.41585515 L40.3073076,10.0224547 L27.9435588,19.2151189 L18.0054704,26.6047805 C17.8405954,26.7410877 17.6682262,26.8702889 17.4889871,26.990446 C17.1629843,27.208796 16.8238665,27.3858017 16.4772543,27.535029 C13.9535432,28.622903 10.9945372,27.8929163 9.22025775,25.6997262 C9.05725636,25.4981724 8.90112476,25.2882204 8.75935727,25.0621184 L2.2580376,29.4207203 C4.30023888,32.6811121 7.44847639,34.9233987 11.1206915,35.7347821 C11.3655059,35.7884006 11.6109448,35.835559 11.8563836,35.8762574 C12.0955772,35.9156637 12.3353954,35.947964 12.5752135,35.9744503 C12.5795852,35.9750963 12.5845814,35.9757423 12.5895776,35.9763883 C13.0798308,36.0300068 13.570084,36.057139 14.0590882,36.057139 C16.7582912,36.057139 19.4268925,35.2386495 21.8513039,33.6100686 C21.8575492,33.6055466 21.8637944,33.6003785 21.8706642,33.5958565 L22.6688089,33.0028231 L35.0444238,23.8004688 L45.4915012,16.0316017 C45.6501309,15.9250107 45.8125077,15.8300479 45.9773827,15.739607 C46.0248467,15.7131208 46.0735598,15.6885726 46.1216483,15.6640243 C46.2509253,15.5974857 46.3820758,15.5354692 46.5144754,15.4786206 C46.5563187,15.4605325 46.5981619,15.4411523 46.6406297,15.4243562 C46.8148726,15.3539415 46.9922381,15.2899869 47.1714771,15.2363684 C47.1877148,15.2318464 47.204577,15.2279704 47.2208147,15.2234483 C47.3856897,15.1749979 47.5524382,15.1355915 47.7210604,15.1013532 C47.7616546,15.0936011 47.8022488,15.0858491 47.8434675,15.078743 C48.008967,15.0490267 48.1757156,15.0251245 48.3430886,15.0096204 C48.3630735,15.0076823 48.3830583,15.0044523 48.4030432,15.0025143 C48.5716653,14.9883022 48.740912,14.9799041 48.9107831,14.9799041 C48.9288944,14.9799041 48.9470057,14.9824881 48.9651169,14.9824881 C49.0875241,14.9837801 49.2099313,14.9941162 49.3323384,15.0025143 C49.4222702,15.0089743 49.512202,15.0102664 49.6021338,15.0206025 C49.8150973,15.0445047 50.0286854,15.078743 50.2410243,15.1252554 C50.447118,15.1704758 50.6494646,15.2260323 50.848064,15.2912789 C51.0347974,15.3532955 51.2177836,15.4250022 51.3970227,15.5031689 C51.4538546,15.5283631 51.5088129,15.5580794 51.5656448,15.5852116 C51.6861784,15.6420601 51.8054629,15.7008467 51.9216248,15.7654473 C51.9859511,15.8009776 52.0477792,15.839738 52.1102318,15.8778523 C52.2157768,15.9418069 52.3194481,16.0070535 52.4212459,16.0768221 C52.4836986,16.1201045 52.5442776,16.1646789 52.6054812,16.2098993 C52.7041564,16.283544 52.8003335,16.3597727 52.8946369,16.4385854 C52.9514688,16.4863899 53.0076762,16.5341943 53.0626345,16.5839368 C53.1594361,16.6711476 53.2524906,16.7622344 53.3436714,16.8552592 C53.3905109,16.9030637 53.4385994,16.9495761 53.4835653,16.9993186 C53.5866122,17.1110776 53.6846628,17.2286507 53.7802154,17.3481618 C53.8095681,17.3843381 53.8401699,17.4185764 53.8682736,17.4547527 C53.9919298,17.6169002 54.1105898,17.7842158 54.2205065,17.9599294 L60.7218261,13.6019735 L60.7218261,13.6013275" id="Fill-27" fill="#FFFFFF" mask="url(#mask-4)"></path>
                    <path d="M60.7218261,13.6013275 C59.1904874,11.1561951 57.0371205,9.28342393 54.5065395,8.15743563 C53.6628044,7.78210619 52.777226,7.49011152 51.8591722,7.28726566 C48.1863325,6.47975827 44.4279327,7.19424081 41.1235636,9.41585515 L40.3073076,10.0224547 L27.9435588,19.2151189 L18.0054704,26.6047805 C17.8405954,26.7410877 17.6682262,26.8702889 17.4889871,26.990446 C17.1629843,27.208796 16.8238665,27.3858017 16.4772543,27.535029 C13.9535432,28.622903 10.9945372,27.8929163 9.22025775,25.6997262 C9.05725636,25.4981724 8.90112476,25.2882204 8.75935727,25.0621184 L2.2580376,29.4207203 C4.30023888,32.6811121 7.44847639,34.9233987 11.1206915,35.7347821 C11.3655059,35.7884006 11.6109448,35.835559 11.8563836,35.8762574 C12.0955772,35.9156637 12.3353954,35.947964 12.5752135,35.9744503 C12.5795852,35.9750963 12.5845814,35.9757423 12.5895776,35.9763883 C13.0798308,36.0300068 13.570084,36.057139 14.0590882,36.057139 C16.7582912,36.057139 19.4268925,35.2386495 21.8513039,33.6100686 C21.8575492,33.6055466 21.8637944,33.6003785 21.8706642,33.5958565 L22.6688089,33.0028231 L35.0444238,23.8004688 L45.4915012,16.0316017 C45.6501309,15.9250107 45.8125077,15.8300479 45.9773827,15.739607 C46.0248467,15.7131208 46.0735598,15.6885726 46.1216483,15.6640243 C46.2509253,15.5974857 46.3820758,15.5354692 46.5144754,15.4786206 C46.5563187,15.4605325 46.5981619,15.4411523 46.6406297,15.4243562 C46.8148726,15.3539415 46.9922381,15.2899869 47.1714771,15.2363684 C47.1877148,15.2318464 47.204577,15.2279704 47.2208147,15.2234483 C47.3856897,15.1749979 47.5524382,15.1355915 47.7210604,15.1013532 C47.7616546,15.0936011 47.8022488,15.0858491 47.8434675,15.078743 C48.008967,15.0490267 48.1757156,15.0251245 48.3430886,15.0096204 C48.3630735,15.0076823 48.3830583,15.0044523 48.4030432,15.0025143 C48.5716653,14.9883022 48.740912,14.9799041 48.9107831,14.9799041 C48.9288944,14.9799041 48.9470057,14.9824881 48.9651169,14.9824881 C49.0875241,14.9837801 49.2099313,14.9941162 49.3323384,15.0025143 C49.4222702,15.0089743 49.512202,15.0102664 49.6021338,15.0206025 C49.8150973,15.0445047 50.0286854,15.078743 50.2410243,15.1252554 C50.447118,15.1704758 50.6494646,15.2260323 50.848064,15.2912789 C51.0347974,15.3532955 51.2177836,15.4250022 51.3970227,15.5031689 C51.4538546,15.5283631 51.5088129,15.5580794 51.5656448,15.5852116 C51.6861784,15.6420601 51.8054629,15.7008467 51.9216248,15.7654473 C51.9859511,15.8009776 52.0477792,15.839738 52.1102318,15.8778523 C52.2157768,15.9418069 52.3194481,16.0070535 52.4212459,16.0768221 C52.4836986,16.1201045 52.5442776,16.1646789 52.6054812,16.2098993 C52.7041564,16.283544 52.8003335,16.3597727 52.8946369,16.4385854 C52.9514688,16.4863899 53.0076762,16.5341943 53.0626345,16.5839368 C53.1594361,16.6711476 53.2524906,16.7622344 53.3436714,16.8552592 C53.3905109,16.9030637 53.4385994,16.9495761 53.4835653,16.9993186 C53.5866122,17.1110776 53.6846628,17.2286507 53.7802154,17.3481618 C53.8095681,17.3843381 53.8401699,17.4185764 53.8682736,17.4547527 C53.9919298,17.6169002 54.1105898,17.7842158 54.2205065,17.9599294 L60.7218261,13.6019735 L60.7218261,13.6013275" id="Fill-27" fill="#FFFFFF" mask="url(#mask-4)"></path>
                    <path d="M10.6226317,16.0313433 L6.40707864,9.30835976 C-0.0973636635,13.6708377 -1.95845229,22.6929563 2.25772534,29.4204619 L8.75966954,25.06186 C8.40431402,24.4959588 8.1457601,23.8932353 7.97838703,23.2750076 C7.81101396,22.65678 7.73544626,22.0230482 7.74731227,21.3944844 C7.78665743,19.2981952 8.79776565,17.2561705 10.6226317,16.0313433" id="Fill-28" fill="#FFFFFF" mask="url(#mask-4)"></path>
                    <path d="M54.2203191,17.9618028 C55.1371238,19.4243602 55.4487625,21.1672841 55.0965296,22.8720937 C54.7449213,24.5794874 53.7719092,26.0401067 52.3573569,26.9884434 L56.5722855,33.715949 C59.7236456,31.6015716 61.8913767,28.3457018 62.6745328,24.5458951 C62.7856985,24.0077721 62.8637643,23.4683572 62.9156,22.9289423 C62.952447,22.5516748 62.9755545,22.1744073 62.9836733,21.7984319 C62.9842979,21.7622556 62.986796,21.7267252 62.9874205,21.6905489 C63.0273902,18.8423088 62.2548511,16.0451032 60.7222633,13.6019089 L54.2203191,17.9598648" id="Fill-29" fill="#FFFFFF" mask="url(#mask-4)"></path>
                </g>
            </g>
        </g>
    </g>
</svg>