<?xml version="1.0" standalone="no"?>
<!DOCTYPE svg PUBLIC "-//W3C//DTD SVG 20010904//EN"
 "http://www.w3.org/TR/2001/REC-SVG-20010904/DTD/svg10.dtd">
<svg version="1.0" xmlns="http://www.w3.org/2000/svg"
 width="512.000000pt" height="512.000000pt" viewBox="0 0 512.000000 512.000000"
 preserveAspectRatio="xMidYMid meet">
<metadata>
Created by potrace 1.16, written by Peter Selinger 2001-2019
</metadata>
<g transform="translate(0.000000,512.000000) scale(0.100000,-0.100000)"
fill="#000000" stroke="none">
<path d="M1250 5101 c-153 -60 -276 -212 -302 -373 -8 -53 5 -263 81 -1259 50
-658 91 -1204 91 -1212 0 -9 -18 -27 -41 -40 -104 -62 -173 -163 -204 -297
-23 -99 -32 -425 -15 -541 29 -204 166 -464 324 -619 l46 -44 0 -201 c0 -226
8 -267 66 -352 44 -64 110 -116 181 -143 54 -20 70 -20 1001 -18 l947 3 57 28
c79 39 143 104 181 185 l32 67 5 220 5 220 68 95 c78 107 150 248 171 332 26
100 35 236 41 598 l6 355 141 1120 c153 1227 155 1253 109 1375 -60 160 -182
234 -386 235 -94 0 -105 -2 -167 -33 -110 -54 -192 -160 -252 -328 -14 -39
-75 -255 -136 -480 -60 -225 -112 -415 -115 -423 -4 -9 -19 -1 -51 29 -25 23
-71 54 -102 68 -50 24 -70 27 -157 27 -93 0 -105 -2 -167 -33 -43 -21 -84 -51
-114 -85 l-48 -52 -53 53 c-32 32 -79 65 -120 85 -63 30 -76 32 -168 32 -90
-1 -106 -4 -155 -29 -30 -16 -65 -37 -77 -49 -18 -16 -23 -17 -27 -6 -3 8 -37
237 -76 509 -84 584 -90 614 -137 727 -57 135 -152 235 -251 263 -58 16 -181
11 -232 -9z m208 -201 c45 -27 88 -100 117 -195 16 -52 58 -309 120 -735 94
-647 95 -657 95 -845 l0 -191 -41 -39 c-23 -22 -88 -101 -145 -176 -100 -132
-277 -329 -286 -319 -2 3 -44 518 -92 1145 -96 1255 -94 1163 -29 1262 67 102
179 143 261 93z m2519 -293 c64 -34 93 -92 93 -189 0 -32 -63 -561 -139 -1176
l-139 -1117 -7 -365 c-3 -201 -11 -399 -16 -440 -19 -144 -64 -245 -185 -415
l-79 -110 -5 -235 c-4 -197 -8 -240 -22 -266 -26 -48 -72 -81 -128 -93 -71
-15 -1699 -15 -1770 0 -59 13 -116 57 -136 106 -10 24 -14 88 -14 240 0 114
-5 224 -10 243 -6 22 -35 60 -80 104 -126 126 -229 301 -270 460 -16 63 -20
111 -20 240 0 184 11 277 41 346 25 59 45 78 131 127 177 101 385 305 561 550
79 111 119 148 174 163 38 11 46 10 78 -10 104 -64 155 -237 104 -350 -47
-105 -210 -289 -421 -476 -205 -182 -208 -185 -208 -233 0 -59 41 -101 99
-101 45 0 47 2 213 153 l98 89 47 -41 c25 -23 76 -56 112 -74 58 -28 76 -31
152 -32 79 0 91 3 161 38 51 25 91 54 121 86 l44 49 53 -54 c121 -124 296
-156 448 -83 63 30 163 132 197 199 55 108 55 108 55 740 l0 585 140 515 c153
562 171 622 207 693 30 60 89 126 128 144 37 17 151 11 192 -10z m-1043 -1131
c53 -22 108 -84 149 -167 l37 -75 0 -552 c0 -608 0 -604 -64 -689 -54 -72
-126 -101 -203 -81 -66 16 -142 93 -171 171 -22 57 -22 69 -22 622 0 536 1
567 20 616 53 141 149 199 254 155z m-669 -12 c54 -25 104 -84 146 -168 l40
-79 -3 -556 -3 -556 -28 -57 c-70 -142 -204 -185 -308 -98 l-33 27 29 37 c227
281 272 373 262 540 -10 186 -111 349 -258 415 -24 11 -54 21 -66 21 -52 0
-53 2 -53 149 0 155 11 204 62 265 17 21 45 47 62 57 38 23 106 25 151 3z"/>
</g>
</svg>
