<svg width="16" height="16" viewBox="0 0 16 16" fill="none" xmlns="http://www.w3.org/2000/svg">
<path d="M14 4.00096H10.6667V2.88763C10.6511 2.46084 10.4668 2.05767 10.1544 1.76649C9.842 1.47531 9.42687 1.31989 9.00004 1.33429H7.00004C6.57321 1.31989 6.15808 1.47531 5.84566 1.76649C5.53324 2.05767 5.34901 2.46084 5.33337 2.88763V4.00096H2.00004C1.82323 4.00096 1.65366 4.0712 1.52864 4.19622C1.40361 4.32125 1.33337 4.49082 1.33337 4.66763C1.33337 4.84444 1.40361 5.01401 1.52864 5.13903C1.65366 5.26406 1.82323 5.33429 2.00004 5.33429H2.66671V12.6676C2.66671 13.1981 2.87742 13.7068 3.25249 14.0818C3.62757 14.4569 4.13627 14.6676 4.66671 14.6676H11.3334C11.8638 14.6676 12.3725 14.4569 12.7476 14.0818C13.1227 13.7068 13.3334 13.1981 13.3334 12.6676V5.33429H14C14.1769 5.33429 14.3464 5.26406 14.4714 5.13903C14.5965 5.01401 14.6667 4.84444 14.6667 4.66763C14.6667 4.49082 14.5965 4.32125 14.4714 4.19622C14.3464 4.0712 14.1769 4.00096 14 4.00096ZM6.66671 2.88763C6.66671 2.78096 6.80671 2.66763 7.00004 2.66763H9.00004C9.19337 2.66763 9.33337 2.78096 9.33337 2.88763V4.00096H6.66671V2.88763ZM12 12.6676C12 12.8444 11.9298 13.014 11.8048 13.139C11.6798 13.2641 11.5102 13.3343 11.3334 13.3343H4.66671C4.4899 13.3343 4.32033 13.2641 4.1953 13.139C4.07028 13.014 4.00004 12.8444 4.00004 12.6676V5.33429H12V12.6676Z" fill="#E45F55"/>
</svg>
